<svg xmlns="http://www.w3.org/2000/svg" viewBox="0 0 32 32" fill="none" stroke="#F2A7B5" stroke-width="2.2" stroke-linecap="round">
  <!-- Simplified fingerprint icon optimized for favicon sizes -->
  <path d="M16 28c0-6 0-12 0-16"/>
  <path d="M11.5 27c0-4 .2-9 .5-13 .4-4.5 2-7 4-7s3.6 2.5 4 7c.2 2.5.3 5 .4 7.5"/>
  <path d="M7.5 24.5c.2-4 .4-8.5 1-12.5C9.5 6 12.5 3 16 3s6.5 3 7.5 9c.5 3 .7 6.5.8 10"/>
  <path d="M4 21c.3-3.5.7-7 1.5-10.5C7 5 11 1.5 16 1.5S25 5 26.5 10.5c.6 2.5 1 5.5 1.2 8.5"/>
</svg>
